<svg height="126.65" width="738.63452" xmlns="http://www.w3.org/2000/svg"><g fill="#326de5" transform="translate(-6.105121 -305.36552)"><path d="m36.220121 374.76552c1.979968-2.15995 4.004966-4.40995 6.075-6.75 2.159962-2.33995 4.22996-4.63494 6.21-6.885 1.979956-2.33994 3.824954-4.54494 5.535-6.615 1.799951-2.06993 3.329949-3.86993 4.59-5.4h23.895c-4.770071 5.49006-9.450067 10.75506-14.04 15.795-4.500057 4.95005-9.450053 10.08004-14.85 15.39 2.69995 2.43004 5.489947 5.35503 8.37 8.775 2.879942 3.33003 5.669939 6.79502 8.37 10.395 2.699933 3.60002 5.174931 7.20001 7.425 10.8 2.249926 3.60001 4.139925 6.885 5.67 9.855h-23.085c-1.440052-2.34-3.105051-4.905-4.995-7.695-1.800047-2.87999-3.735045-5.71499-5.805-8.505-2.070041-2.87998-4.275039-5.62498-6.615-8.235-2.250034-2.60997-4.500032-4.81497-6.75-6.615v31.05h-20.115v-101.52l20.115-3.24z"/><path d="m153.44864 417.69552c-3.42007.99-7.83007 1.89-13.23 2.7-5.40005.9-11.07005 1.35-17.01 1.35-6.03004 0-11.07003-.81-15.12-2.43-3.96002-1.62-7.11002-3.87-9.450004-6.75-2.340012-2.96999-4.005011-6.47999-4.995-10.53-.990009-4.04998-1.485008-8.50497-1.485-13.365v-39.555h20.115004v37.125c-.00003 6.48003.85497 11.16002 2.565 14.04 1.70996 2.88002 4.90496 4.32001 9.585 4.32 1.43995.00001 2.96995-.045 4.59-.135 1.61995-.17999 3.05995-.35999 4.32-.54v-54.81h20.115z"/><path d="m217.95754 384.08052c-.00005-12.95995-4.77005-19.43995-14.31-19.44-2.07004.00005-4.14003.27005-6.21.81-1.98003.54005-3.60003 1.21505-4.86 2.025v36.585c.98997.18001 2.24997.36001 3.78.54 1.52997.09 3.19497.13501 4.995.135 5.48996.00001 9.62995-1.88998 12.42-5.67 2.78995-3.77998 4.18495-8.77497 4.185-14.985m20.52.54c-.00007 5.67003-.85507 10.80002-2.565 15.39-1.62007 4.59001-4.00507 8.50501-7.155 11.745-3.15006 3.24-7.02006 5.76-11.61 7.56-4.59005 1.71-9.81004 2.565-15.66 2.565-2.43003 0-4.99503-.135-7.695-.405-2.61003-.18-5.22002-.45-7.83-.81-2.52002-.36-4.95002-.765-7.29-1.215-2.34001-.54-4.41001-1.08-6.21-1.62v-99.225l20.115-3.24v35.37c2.24997-.98993 4.58997-1.75493 7.02-2.295 2.42996-.53993 5.03996-.80993 7.83-.81 5.03995.00007 9.49495.90007 13.365 2.7 3.86994 1.71007 7.10994 4.18506 9.72 7.425 2.60993 3.24006 4.58993 7.15505 5.94 11.745 1.34993 4.50004 2.02493 9.54004 2.025 15.12"/><path d="m250.56215 385.16052c0-6.29996.945-11.78995 2.835-16.47 1.97999-4.76994 4.54499-8.72994 7.695-11.88 3.14998-3.14993 6.74998-5.53493 10.8-7.155 4.13997-1.61993 8.36997-2.42993 12.69-2.43 10.07995.00007 18.04494 3.10507 23.895 9.315 5.84993 6.12006 8.77493 15.16505 8.775 27.135-.00007 1.17003-.0451 2.47503-.135 3.915-.0901 1.35003-.18007 2.56503-.27 3.645h-45.63c.44997 4.14002 2.38497 7.42502 5.805 9.855 3.41997 2.43002 8.00996 3.64501 13.77 3.645 3.68995.00001 7.28995-.31499 10.8-.945 3.59994-.71998 6.52494-1.57498 8.775-2.565l2.7 16.335c-1.08007.54-2.52006 1.08-4.32 1.62-1.80006.54-3.82506.99-6.075 1.35-2.16005.45-4.50005.81-7.02 1.08-2.52005.27-5.04004.405-7.56.405-6.39004 0-11.97003-.945-16.74-2.835-4.68002-1.89-8.59502-4.455-11.745-7.695-3.06001-3.32999-5.35501-7.24499-6.885-11.745-1.44-4.49998-2.16-9.35997-2.16-14.58m47.25-7.695c-.09-1.70996-.40505-3.37496-.945-4.995-.45005-1.61995-1.21505-3.05995-2.295-4.32-.99005-1.25995-2.29505-2.29495-3.915-3.105-1.53004-.80995-3.46504-1.21494-5.805-1.215-2.25004.00006-4.18503.40505-5.805 1.215-1.62003.72005-2.97003 1.71005-4.05 2.97-1.08003 1.26005-1.93503 2.74505-2.565 4.455-.54003 1.62004-.94502 3.28504-1.215 4.995z"/><path d="m375.57004 366.93552c-1.80005-.44995-3.91505-.89995-6.345-1.35-2.43004-.53995-5.04004-.80995-7.83-.81-1.26003.00005-2.79003.13505-4.59.405-1.71003.18005-3.01503.40505-3.915.675v54.27h-20.115v-67.23c3.59999-1.25993 7.82999-2.42993 12.69-3.51 4.94998-1.16993 10.43997-1.75493 16.47-1.755 1.07996.00007 2.38496.0901 3.915.27 1.52996.0901 3.05996.27007 4.59.54 1.52995.18007 3.05995.45007 4.59.81 1.52995.27007 2.83495.63007 3.915 1.08z"/><path d="m389.72817 351.54552c3.41998-.98993 7.82998-1.88993 13.23-2.7 5.39997-.89993 11.06996-1.34993 17.01-1.35 6.02995.00007 11.02495.81007 14.985 2.43 4.04994 1.53007 7.24494 3.73507 9.585 6.615 2.33993 2.88006 4.00493 6.30006 4.995 10.26.98993 3.96005 1.48493 8.37004 1.485 13.23v40.095h-20.115v-37.665c-.00005-6.47996-.85505-11.06995-2.565-13.77-1.71005-2.69995-4.90505-4.04995-9.585-4.05-1.44004.00005-2.97004.0901-4.59.27-1.62003.09-3.06003.22505-4.32.405v54.81h-20.115z"/><path d="m465.98207 385.16052c0-6.29996.945-11.78995 2.835-16.47 1.97999-4.76994 4.54499-8.72994 7.695-11.88 3.14998-3.14993 6.74998-5.53493 10.8-7.155 4.13997-1.61993 8.36997-2.42993 12.69-2.43 10.07995.00007 18.04495 3.10507 23.895 9.315 5.84993 6.12006 8.77493 15.16505 8.775 27.135-.00007 1.17003-.0451 2.47503-.135 3.915-.0901 1.35003-.18007 2.56503-.27 3.645h-45.63c.44998 4.14002 2.38497 7.42502 5.805 9.855 3.41997 2.43002 8.00996 3.64501 13.77 3.645 3.68995.00001 7.28995-.31499 10.8-.945 3.59994-.71998 6.52494-1.57498 8.775-2.565l2.7 16.335c-1.08006.54-2.52006 1.08-4.32 1.62-1.80006.54-3.82506.99-6.075 1.35-2.16005.45-4.50005.81-7.02 1.08-2.52004.27-5.04004.405-7.56.405-6.39003 0-11.97003-.945-16.74-2.835-4.68002-1.89-8.59501-4.455-11.745-7.695-3.06001-3.32999-5.35501-7.24499-6.885-11.745-1.44-4.49998-2.16-9.35997-2.16-14.58m47.25-7.695c-.0901-1.70996-.40505-3.37496-.945-4.995-.45005-1.61995-1.21505-3.05995-2.295-4.32-.99005-1.25995-2.29504-2.29495-3.915-3.105-1.53004-.80995-3.46504-1.21494-5.805-1.215-2.25003.00006-4.18503.40505-5.805 1.215-1.62003.72005-2.97003 1.71005-4.05 2.97-1.08003 1.26005-1.93502 2.74505-2.565 4.455-.54002 1.62004-.94502 3.28504-1.215 4.995z"/><path d="m547.51996 331.43052 20.115-3.24v20.925h24.165v16.74h-24.165v24.975c-.00002 4.23002.71997 7.60502 2.16 10.125 1.52997 2.52002 4.54497 3.78001 9.045 3.78 2.15996.00001 4.36496-.17999 6.615-.54 2.33996-.44998 4.45495-1.03498 6.345-1.755l2.835 15.66c-2.43005.99-5.13005 1.845-8.1 2.565-2.97004.72-6.61504 1.08-10.935 1.08-5.49003 0-10.03502-.72-13.635-2.16-3.60002-1.53-6.48001-3.6-8.64-6.21-2.16001-2.69999-3.69001-5.93999-4.59-9.72-.81-3.77998-1.215-7.96498-1.215-12.555z"/><path d="m602.03676 385.16052c0-6.29996.94499-11.78995 2.835-16.47 1.97999-4.76994 4.54499-8.72994 7.695-11.88 3.14998-3.14993 6.74998-5.53493 10.8-7.155 4.13997-1.61993 8.36997-2.42993 12.69-2.43 10.07995.00007 18.04494 3.10507 23.895 9.315 5.84993 6.12006 8.77493 15.16505 8.775 27.135-.00007 1.17003-.0451 2.47503-.135 3.915-.0901 1.35003-.18007 2.56503-.27 3.645h-45.63c.44997 4.14002 2.38497 7.42502 5.805 9.855 3.41997 2.43002 8.00996 3.64501 13.77 3.645 3.68995.00001 7.28995-.31499 10.8-.945 3.59994-.71998 6.52494-1.57498 8.775-2.565l2.7 16.335c-1.08007.54-2.52006 1.08-4.32 1.62-1.80006.54-3.82506.99-6.075 1.35-2.16005.45-4.50005.81-7.02 1.08-2.52005.27-5.04004.405-7.56.405-6.39004 0-11.97003-.945-16.74-2.835-4.68002-1.89-8.59502-4.455-11.745-7.695-3.06001-3.32999-5.35501-7.24499-6.885-11.745-1.44001-4.49998-2.16-9.35997-2.16-14.58m47.25-7.695c-.09-1.70996-.40505-3.37496-.945-4.995-.45005-1.61995-1.21505-3.05995-2.295-4.32-.99005-1.25995-2.29505-2.29495-3.915-3.105-1.53004-.80995-3.46504-1.21494-5.805-1.215-2.25004.00006-4.18503.40505-5.805 1.215-1.62003.72005-2.97003 1.71005-4.05 2.97-1.08003 1.26005-1.93503 2.74505-2.565 4.455-.54003 1.62004-.94503 3.28504-1.215 4.995z"/><path d="m704.63465 405.68052c3.68997.00001 6.29997-.35999 7.83-1.08 1.52996-.71998 2.29496-2.11498 2.295-4.185-.00004-1.61998-.99004-3.01498-2.97-4.185-1.98003-1.25998-4.99503-2.65497-9.045-4.185-3.15002-1.16997-6.03002-2.38497-8.64-3.645-2.52001-1.25997-4.68001-2.74497-6.48-4.455-1.80001-1.79996-3.19501-3.91496-4.185-6.345-.99001-2.42996-1.48501-5.35495-1.485-8.775-.00001-6.65994 2.47499-11.92494 7.425-15.795 4.94998-3.86993 11.74498-5.80493 20.385-5.805 4.31996.00007 8.45996.40507 12.42 1.215 3.95995.72007 7.10995 1.53007 9.45 2.43l-3.51 15.66c-2.34005-.80995-4.90505-1.52995-7.695-2.16-2.70004-.62994-5.76004-.94494-9.18-.945-6.30003.00006-9.45002 1.75505-9.45 5.265-.00002.81005.13497 1.53005.405 2.16.26997.63005.80997 1.26005 1.62 1.89.80997.54005 1.88997 1.17005 3.24 1.89 1.43997.63004 3.23997 1.35004 5.4 2.16 4.40996 1.62004 8.05496 3.24004 10.935 4.86 2.87995 1.53004 5.12995 3.24003 6.75 5.13 1.70995 1.80003 2.87994 3.82503 3.51 6.075.71994 2.25002 1.07994 4.86002 1.08 7.83-.00006 7.02001-2.65506 12.33001-7.965 15.93-5.22004 3.6-12.64504 5.4-22.275 5.4-6.30002 0-11.56502-.54-15.795-1.62-4.14001-1.08-7.02-1.98-8.64-2.7l3.375-16.335c3.41999 1.35002 6.92999 2.43002 10.53 3.24 3.59998.72001 7.15498 1.08001 10.665 1.08"/></g></svg>